<svg width="224" height="122" viewBox="0 0 224 122" fill="none" xmlns="http://www.w3.org/2000/svg">
<path d="M178.855 60.06L206.995 91C210.169 94.5467 211.755 97.5333 211.755 99.96C211.755 102.387 209.935 105.233 206.295 108.5C202.749 111.767 199.715 113.4 197.195 113.4C194.769 113.4 191.922 111.533 188.655 107.8L162.055 77.28L135.455 107.8C132.095 111.533 129.202 113.4 126.775 113.4C124.442 113.4 121.409 111.767 117.675 108.5C114.035 105.14 112.215 102.293 112.215 99.96C112.215 97.6267 113.849 94.64 117.115 91L145.255 60.06L117.115 29.12C113.849 25.6667 112.215 22.7267 112.215 20.3C112.215 17.8733 114.035 15.0267 117.675 11.76C121.315 8.4 124.349 6.72 126.775 6.72C129.295 6.72 132.189 8.58666 135.455 12.32L162.055 42.84L188.655 12.32C192.015 8.58666 194.862 6.72 197.195 6.72C199.622 6.72 202.655 8.35333 206.295 11.62C209.935 14.8867 211.755 17.78 211.755 20.3C211.755 22.82 210.169 25.76 206.995 29.12L178.855 60.06Z" fill="#48D2FE"/>
<path d="M49.527 13.024C62.1563 13.024 73.1217 17.5893 82.423 26.72C91.7243 35.8507 96.375 47.2 96.375 60.768C96.375 74.2507 91.9377 85.7707 83.063 95.328C74.1883 104.8 63.2657 109.536 50.295 109.536C37.3243 109.536 26.2737 104.843 17.143 95.456C8.09767 86.0693 3.575 74.8907 3.575 61.92C3.575 54.8373 4.855 48.224 7.415 42.08C9.975 35.8507 13.3883 30.6453 17.655 26.464C21.9217 22.2827 26.8283 18.9973 32.375 16.608C37.9217 14.2187 43.639 13.024 49.527 13.024ZM26.231 61.28C26.231 68.8747 28.663 75.0613 33.527 79.84C38.4763 84.5333 43.9803 86.88 50.039 86.88C56.0977 86.88 61.559 84.576 66.423 79.968C71.287 75.36 73.719 69.1733 73.719 61.408C73.719 53.6427 71.2443 47.4133 66.295 42.72C61.431 38.0267 55.9697 35.68 49.911 35.68C43.8523 35.68 38.391 38.0693 33.527 42.848C28.663 47.5413 26.231 53.6853 26.231 61.28Z" fill="#E2BE00"/>
</svg>
